<svg xmlns="http://www.w3.org/2000/svg" viewBox="0 0 48 48" width="96px" height="96px"><path fill="#00897b" d="M8 37L15 44 33 44 40 37 40 11 33 4 15 4 8 11z"/><path fill="#26a69a" d="M8 37L15 44 33 4 15 4 8 11z"/><path fill="#26a69a" d="M12 8H36V40H12z"/><path fill="#80cbc4" d="M36 8L12 8 12 40z"/><path fill="#4db6ac" d="M36 8L12 8 24 24z"/><path fill="#b2dfdb" d="M16 16L20 12 28.111 12 32 16 32 32 28 36 20 36 16 32z"/><path fill="#ceefec" d="M16 16L20 12 28.111 12 20 36 16 32z"/><path fill="#80cbc4" d="M33 44L28.111 36 32 32 40 37z"/><path fill="#b2dfdb" d="M15 44L20 36 16 32 8 37zM16 16L8 11 15 4 20 12z"/><path fill="#80cbc4" d="M28 12L32 16 40 11 33 4z"/></svg>