<?xml version="1.0" encoding="UTF-8" standalone="no"?>
<svg
   xmlns:dc="http://purl.org/dc/elements/1.1/"
   xmlns:cc="http://creativecommons.org/ns#"
   xmlns:rdf="http://www.w3.org/1999/02/22-rdf-syntax-ns#"
   xmlns:svg="http://www.w3.org/2000/svg"
   xmlns="http://www.w3.org/2000/svg"
   xmlns:sodipodi="http://sodipodi.sourceforge.net/DTD/sodipodi-0.dtd"
   xmlns:inkscape="http://www.inkscape.org/namespaces/inkscape"
   viewBox="0 0 128 128"
   version="1.1"
   id="svg5739"
   sodipodi:docname="10-moedeira_cheia.svg"
   inkscape:version="0.92.4 (5da689c313, 2019-01-14)">
  <metadata
     id="metadata5745">
    <rdf:RDF>
      <cc:Work
         rdf:about="">
        <dc:format>image/svg+xml</dc:format>
        <dc:type
           rdf:resource="http://purl.org/dc/dcmitype/StillImage" />
        <dc:title></dc:title>
      </cc:Work>
    </rdf:RDF>
  </metadata>
  <defs
     id="defs5743" />
  <sodipodi:namedview
     pagecolor="#ffffff"
     bordercolor="#666666"
     borderopacity="1"
     objecttolerance="10"
     gridtolerance="10"
     guidetolerance="10"
     inkscape:pageopacity="0"
     inkscape:pageshadow="2"
     inkscape:window-width="2490"
     inkscape:window-height="1376"
     id="namedview5741"
     showgrid="false"
     inkscape:zoom="6.607029"
     inkscape:cx="37.242316"
     inkscape:cy="69.083531"
     inkscape:window-x="70"
     inkscape:window-y="27"
     inkscape:window-maximized="1"
     inkscape:current-layer="svg5739"
     inkscape:snap-bbox="false" />
  <g
     id="g5831">
    <path
       style="fill:#f8b790;fill-opacity:1"
       id="path5731"
       d="M90.9,104.5H37.1c-12.2,0-21.5-10.8-19.8-22.8l4.3-30c1.4-9.9,9.8-17.2,19.8-17.2h45.3 c10,0,18.399,7.3,19.8,17.2l4.3,30C112.5,93.7,103.1,104.5,90.9,104.5"
       fill="#f8e390" />
    <path
       style="fill:#facdb2;fill-opacity:1"
       id="path5733"
       d="M86.7,34.5H41.4c-0.826,0-1.642,0.05-2.442,0.147L35,48.3c-4.2,14.5,3,28.7,15.1,35 c4.2,2.4,8.3,3,10,3.101C61.4,86.6,62.7,86.6,64,86.6l0,0l0,0c0.102,0.001,0.207,0.002,0.308,0.002h0h0.001 c19.492-0.001,34.179-18.8,28.736-38.141c-0.001-0.002-0.001-0.005-0.002-0.007c-0.002-0.008-0.004-0.016-0.007-0.024 c0-0.001-0.001-0.004-0.002-0.005c-0.001-0.005-0.002-0.008-0.004-0.013c-0.003-0.011-0.006-0.021-0.009-0.031 c-0.004-0.013-0.008-0.026-0.011-0.039c-0.002-0.006-0.004-0.014-0.006-0.02c-0.002-0.007-0.004-0.013-0.006-0.02l0,0l-3.961-13.665 C88.271,34.546,87.491,34.5,86.7,34.5"
       fill="#faebb2" />
    <path
       style="fill:#e0a683;fill-opacity:1"
       id="path5735"
       d="M89.1,34.7L93,48.3l0,0c0.002,0.007,0.004,0.013,0.006,0.02c0.002,0.006,0.004,0.014,0.006,0.02 c0.004,0.013,0.008,0.026,0.011,0.039c0.003,0.011,0.006,0.021,0.009,0.031c0.001,0.005,0.002,0.008,0.004,0.013 c0,0.001,0.001,0.004,0.002,0.005c0.002,0.008,0.004,0.016,0.007,0.024c0.001,0.002,0.001,0.005,0.002,0.007 c5.444,19.342-9.242,38.143-28.736,38.141h-0.001l0,0l0,0h0c-0.103,0-0.205-0.001-0.308-0.002l0,0l0,0c-0.3,0-0.6,0-0.9,0 c-0.402,0.027-0.812,0.039-1.227,0.039c-1.132,0-2.302-0.093-3.473-0.239l-21.5-2.5c-0.481-0.055-0.95-0.082-1.404-0.082 C23.6,83.817,21.277,102.081,33.8,104.2c1.095,0.199,2.19,0.299,3.286,0.3c0.005,0,0.009,0,0.015,0l0,0h53.8 c6.1,0,11.5-2.7,15.162-6.9c3.638-4.2,5.538-9.9,4.638-15.9l-4.3-30C105.1,42.7,97.9,35.8,89.1,34.7"
       fill="#e0cd83" />
    <path
       id="path5737"
       d="M90.9 107.5H37.1c-6.7 0-13-2.9-17.4-7.9s-6.3-11.7-5.4-18.3l3.3-20.1c.3-1.6 1.8-2.7 3.4-2.5 1.6.3 2.7 1.8 2.5 3.4l-3.3 20c-.7 4.8.8 9.8 4 13.5s7.9 5.9 12.8 5.9h53.9c4.9 0 9.6-2.1 12.8-5.9 3.2-3.7 4.7-8.7 4-13.5l-3.3-19.9c-.3-1.6.8-3.2 2.5-3.4 1.6-.3 3.2.8 3.4 2.5l3.3 20c1 6.7-1 13.3-5.4 18.4C103.9 104.6 97.6 107.5 90.9 107.5zM21.506 56.201c-.21 0-.422-.015-.636-.045-2.461-.348-4.174-2.625-3.826-5.085C18.771 38.861 28.972 30 41.3 30h45.3c12.328 0 22.529 8.861 24.257 21.07.348 2.461-1.365 4.738-3.826 5.086-2.451.351-4.737-1.364-5.086-3.825C100.853 44.606 94.398 39 86.6 39H41.3c-7.799 0-14.252 5.606-15.344 13.33C25.638 54.577 23.711 56.201 21.506 56.201zM59 28.5c-.26 0-.52-.03-.78-.08-.26-.05-.51-.13-.75-.23-.24-.1-.47-.22-.69-.36-.22-.15-.42-.32-.61-.5-.18-.19-.35-.39-.5-.61-.14-.22-.26-.45-.36-.69-.1-.24-.18-.49-.23-.75C55.03 25.02 55 24.76 55 24.5c0-1.05.43-2.09 1.17-2.83.19-.18.39-.35.61-.5.22-.14.45-.26.69-.36.24-.1.49-.18.75-.23 1.3-.26 2.68.16 3.61 1.09C62.57 22.41 63 23.45 63 24.5c0 .26-.03.52-.08.78-.05.26-.13.51-.23.75-.1.24-.22.47-.36.69-.15.22-.32.42-.5.61-.19.18-.39.35-.61.5-.22.14-.45.26-.69.36-.24.1-.49.18-.75.23C59.52 28.47 59.26 28.5 59 28.5zM69 28.5c-1.05 0-2.08-.43-2.83-1.17-.18-.19-.351-.39-.5-.61-.14-.22-.26-.45-.36-.69-.1-.24-.18-.49-.229-.75C65.02 25.02 65 24.76 65 24.5c0-1.05.43-2.08 1.17-2.83.93-.93 2.31-1.36 3.61-1.09.26.05.51.13.75.23.239.1.47.22.689.36.22.15.42.32.61.5C72.569 22.42 73 23.45 73 24.5c0 .26-.03.52-.08.78-.05.26-.13.51-.23.75-.1.24-.22.47-.37.69-.14.22-.31.42-.489.61-.19.18-.391.35-.61.5-.22.14-.45.26-.689.36-.24.1-.49.18-.75.23C69.52 28.47 69.26 28.5 69 28.5z"
       fill="#454b54" />
  </g>
  <path
     id="path5793-7"
     d="m 85.731915,54.247442 v 5.681121 4.15729 l -8.77452,30.021186 c 1.248157,0.09143 7.493846,-1.601566 10.522408,-2.684097 3.49973,-1.250946 3.846841,-1.954133 3.846841,-1.954133 l -0.05351,-25.382966 v -4.15729 -5.681121 c 0,-7.13984 -9.148531,-8.518214 -16.544655,-9.39511 l -0.07896,5.399905 c 6.393166,0.494552 11.082411,2.09319 11.082411,3.995209 z"
     inkscape:connector-curvature="0"
     style="fill:#944b00;fill-opacity:0.46859903;stroke-width:1.38530135"
     sodipodi:nodetypes="ccccscccscccc" />
  <g
     id="g5825"
     transform="matrix(1.3853014,0,0,1.3853014,27.550645,38.998044)">
    <path
       id="path5787"
       d="m 20,9 v 26 2 c 0,0 1,3 11,3 10,0 11,-3 11,-3 V 33 9 Z"
       inkscape:connector-curvature="0"
       style="fill:#ffc107" />
    <path
       id="path5789"
       d="m 31,4 a 11,3 0 1 0 0,6 11,3 0 1 0 0,-6 z"
       inkscape:connector-curvature="0"
       style="fill:#ffc107" />
    <path
       id="path5791"
       d="m 20,13 c 0,0 1,3 11,3 10,0 11,-3 11,-3 v 3 c 0,0 -1,3 -11,3 -10,0 -11,-3 -11,-3 z m 0,9 c 0,0 1,3 11,3 10,0 11,-3 11,-3 v -3 c 0,0 -1,3 -11,3 -10,0 -11,-3 -11,-3 z m 0,6 c 0,0 1,3 11,3 10,0 11,-3 11,-3 v -3 c 0,0 -1,3 -11,3 -10,0 -11,-3 -11,-3 z m 0,6 c 0,0 1,3 11,3 10,0 11,-3 11,-3 v -3 c 0,0 -1,3 -11,3 -10,0 -11,-3 -11,-3 z m 0,-24 c 0,0 1,3 11,3 10,0 11,-3 11,-3 V 7 C 42,7 41,10 31,10 21,10 20,7 20,7 Z"
       inkscape:connector-curvature="0"
       style="fill:#ff9800" />
    <path
       id="path5793"
       d="M 28,31.899 V 36 v 3.001 0.891 c 0.901,0.066 1.887,0.108 3,0.108 0.353,0 0.67,-0.012 1,-0.02 V 39.001 36 31.899 C 32,26.745 25.396,25.75 20.057,25.117 L 20,29.015 c 4.615,0.357 8,1.511 8,2.884 z"
       inkscape:connector-curvature="0"
       style="fill:#f57c00" />
    <path
       id="path5795"
       d="m 31,31 c 0.326,0 0.621,-0.011 0.925,-0.018 -0.217,-1.27 -0.899,-2.238 -1.866,-3 -7.993,-0.164 -9.708,-2.337 -10.002,-2.865 l -0.027,1.9 c 4.6,0.359 7.971,1.512 7.971,2.882 v 0.992 C 28.901,30.958 29.887,31 31,31 Z m -3,2.892 V 36 36.892 c 0.901,0.066 1.887,0.108 3,0.108 0.353,0 0.67,-0.012 1,-0.02 V 36 33.98 C 31.67,33.988 31.353,34 31,34 29.887,34 28.901,33.958 28,33.892 Z"
       inkscape:connector-curvature="0"
       style="fill:#d66805" />
    <g
       id="g5801">
      <path
         id="path5797"
         d="m 6,29 h 22 v 9.001 H 6 Z"
         inkscape:connector-curvature="0"
         style="fill:#cfd8dc" />
      <path
         id="path5799"
         d="m 6,36 c 0,0 1,3 11,3 10,0 11,-3 11,-3 v 4 c 0,0 -1,3 -11,3 C 7,43 6,40 6,40 Z M 17,25 a 11,3 0 1 0 0,6 11,3 0 1 0 0,-6 z"
         inkscape:connector-curvature="0"
         style="fill:#cfd8dc" />
    </g>
    <g
       id="g5805">
      <path
         id="path5803"
         d="m 6,28 c 0,0 1,3 11,3 10,0 11,-3 11,-3 v 3 c 0,0 -1,3 -11,3 C 7,34 6,31 6,31 Z m 0,6 c 0,0 1,3 11,3 10,0 11,-3 11,-3 v 3 c 0,0 -1,3 -11,3 C 7,40 6,37 6,37 Z"
         inkscape:connector-curvature="0"
         style="fill:#90a4ae" />
    </g>
  </g>
</svg>
