<svg xmlns="http://www.w3.org/2000/svg" viewBox="0 0 48 48" width="96px" height="96px"><path fill="#e0e0e0" d="M7,8h34l3,16H4L7,8z"/><path fill="#757575" d="M4,31.8L6.7,38h34.5l2.7-6.2V30H4V31.8z"/><path fill="#eee" d="M4,24h40v6H4V24z"/><path fill="#bdbdbd" d="M10 30L8 30 8 20 28 20 28 22 10 22z"/><path fill="#212121" d="M28,8h8v16h-8V8z"/><path fill="#424242" d="M10 33h4v2h-4V33zM16 33h4v2h-4V33z"/><path fill="#da6a69" d="M12,26h10v2H12V26z"/><path fill="#bdbdbd" d="M28,11h8v9h-8V11z"/><path fill="#424242" d="M28,24h8v14h-8V24z"/><path d="M29 32h2v4h-2V32zM33 32h2v4h-2V32z"/></svg>