<?xml version="1.0" encoding="UTF-8" standalone="no"?>
<svg
   xmlns:dc="http://purl.org/dc/elements/1.1/"
   xmlns:cc="http://creativecommons.org/ns#"
   xmlns:rdf="http://www.w3.org/1999/02/22-rdf-syntax-ns#"
   xmlns:svg="http://www.w3.org/2000/svg"
   xmlns="http://www.w3.org/2000/svg"
   xmlns:sodipodi="http://sodipodi.sourceforge.net/DTD/sodipodi-0.dtd"
   xmlns:inkscape="http://www.inkscape.org/namespaces/inkscape"
   viewBox="0 0 48 48"
   width="96px"
   height="96px"
   version="1.1"
   id="svg3795"
   sodipodi:docname="coxinha.svg"
   inkscape:version="0.92.4 (5da689c313, 2019-01-14)">
  <metadata
     id="metadata3801">
    <rdf:RDF>
      <cc:Work
         rdf:about="">
        <dc:format>image/svg+xml</dc:format>
        <dc:type
           rdf:resource="http://purl.org/dc/dcmitype/StillImage" />
        <dc:title></dc:title>
      </cc:Work>
    </rdf:RDF>
  </metadata>
  <defs
     id="defs3799" />
  <sodipodi:namedview
     pagecolor="#ffffff"
     bordercolor="#666666"
     borderopacity="1"
     objecttolerance="10"
     gridtolerance="10"
     guidetolerance="10"
     inkscape:pageopacity="0"
     inkscape:pageshadow="2"
     inkscape:window-width="2490"
     inkscape:window-height="1376"
     id="namedview3797"
     showgrid="false"
     inkscape:zoom="12.458333"
     inkscape:cx="48"
     inkscape:cy="48"
     inkscape:window-x="70"
     inkscape:window-y="27"
     inkscape:window-maximized="1"
     inkscape:current-layer="svg3795" />
  <path
     d="M 37,31 C 37,38.2 31.2,44 24,44 16.8,44 11,38.2 11,31 11,23.8 20.06733,4.108358 24.040134,4.1204013 28.012938,4.1324447 37,23.8 37,31 Z"
     id="path3791"
     style="fill:#d45500"
     inkscape:connector-curvature="0"
     sodipodi:nodetypes="ssszs" />
  <path
     fill="#bbdefb"
     d="M24,39c-4.4,0-8-3.6-8-8c0-1.1,0.9-2,2-2s2,0.9,2,2c0,2.2,1.8,4,4,4c1.1,0,2,0.9,2,2S25.1,39,24,39z"
     id="path3793"
     style="fill:#aa4400" />
</svg>
