<svg xmlns="http://www.w3.org/2000/svg" viewBox="0 0 48 48" width="96" height="96"><path fill="#78909C" d="M6 28v10a4 4 0 004 4h28a4 4 0 004-4V28H6z"/><path fill="#455A64" d="M42 28a4 4 0 01-4 4H10a4 4 0 01-4-4l3-18c.219-2.094 1.791-4 4-4h22c2.209 0 3.688 1.75 4 4l3 18z"/><path fill="#64DD17" d="M35 35a2 2 0 100 4 2 2 0 100-4z"/><path fill="#BBDEFB" d="M24 11c-6.627 0-12 3.134-12 7 0 3.865 5.373 7 12 7s12-3.135 12-7c0-3.866-5.373-7-12-7zm0 8.555c-1.473 0-2.667-.695-2.667-1.555s1.194-1.556 2.667-1.556 2.666.696 2.666 1.556-1.193 1.555-2.666 1.555z"/></svg>