<svg xmlns="http://www.w3.org/2000/svg" viewBox="0 0 48 48" width="96px" height="96px"><path fill="#607d8b" d="M30 23c0 .6-.4 1-1 1H6c0 0 0-3-3-3v-4c0-.6.4-1 1-1h25c.6 0 1 .4 1 1V23zM45 14c0 .6-.4 1-1 1H4c-.6 0-1-.4-1-1v-2c0-.6.4-1 1-1h40c.6 0 1 .4 1 1V14z"/><path fill="#607d8b" d="M29.9,39.8c-4.5-4.3-6.5-9.9-6.9-15.8v-2h7v2c0.3,4.1,1.3,8.2,4.8,11.3c0.4,0.4,0,0.9,0,0.9 l-4.1,3.7C30.7,39.8,30.3,40.2,29.9,39.8z"/><path fill="#37474f" d="M44 13h2v3h-2V13zM2 15h2v2H2V15zM45 21h-2v-1c0 0 0-2-2-2v-1h4V21z"/><path fill="#37474f" d="M45 17h-2v-7c0-.6.4-1 1-1s1 .4 1 1V17zM40 27c0 .6-.4 1-1 1h-2c-.6 0-1-.4-1-1 0 0 0-2 0-4 0-1.8 1-3.5 1-4 0-1-1-1-1-1v-1h4v1c0 0-1 0-1 1 0 .5 1 2.2 1 4C40 25 40 27 40 27z"/><path fill="#37474f" d="M44 14H3v4h41c.6 0 1-.4 1-1v-2C45 14.4 44.6 14 44 14zM31 37c-.2 0-.5-.1-.7-.3C26.1 32.8 25 26.7 25 24c0-.6.4-1 1-1s1 .4 1 1c0 2.8 1.2 8.1 4.7 11.3.4.4.4 1 .1 1.4C31.5 36.9 31.3 37 31 37z"/><path fill="#37474f" d="M30 24h-7v-7h9v1c0 0-2 0-2 2S30 24 30 24zM11 11v-1L8 8H7C6.4 8 6 8.4 6 9v2H11zM6 24L2 36l7 2 3-14H6z"/><path fill="#37474f" d="M9 39c-.1 0-.2 0-.3-.1l-6-2c-.5-.2-.8-.7-.6-1.3.2-.5.7-.8 1.3-.6l6 2c.5.2.8.7.6 1.3C9.8 38.7 9.4 39 9 39zM18.5 24l-1.4 3.6c-.1.1-.2.3-.3.4h-4.4l-1.3-1.3.9-2.6V24H9.9l-1.1 3.3 2.7 2.7H17c1.1 0 1.7-1.2 1.9-1.6l1.7-4.4H18.5z"/><path fill="#37474f" d="M14.1,24H12c0,0.1,0,0.3,0.1,0.4l1,2c0.2,0.4,0.5,0.6,0.9,0.6c0.1,0,0.3,0,0.4-0.1 c0.5-0.2,0.7-0.8,0.4-1.3L14.1,24z"/><path fill="#263238" d="M11.4,21c0.4,0.4,0.4,1,0,1.4s-1,0.4-1.4,0s-1.7-2.3-1.3-2.7C9.1,19.3,11,20.6,11.4,21z"/><path d="M28,15c0,0.6-0.4,1-1,1h-5c-0.6,0-1-0.4-1-1v-2c0-0.6,0.4-1,1-1h5c0.6,0,1,0.4,1,1V15z"/></svg>