<svg xmlns="http://www.w3.org/2000/svg" viewBox="0 0 48 48" width="96px" height="96px"><path fill="#FFD54F" d="M40.463,7.538c-5.2-5.199-12.813-1.482-17.154,2.86c-0.323,0.323-0.627,0.674-0.921,1.036l14.179,14.179c0.362-0.294,0.713-0.598,1.036-0.921C41.944,20.352,45.66,12.737,40.463,7.538z"/><path fill="#FFECB3" d="M25.252,14.353c0.318-0.437,0.659-0.841,1.017-1.198c2.438-2.437,9.372-7.578,12.764-4.188c-4.523-4.521-11.261-0.173-14.193,2.759c-0.363,0.363-0.701,0.767-1.024,1.19L25.252,14.353z"/><path fill="#9E9D24" d="M24.728,38.998l13.59-13.591L22.594,9.684L9.003,23.272c0.789,0.79,0.789,2.07,0,2.859s-2.069,0.79-2.859,0L4,28.276L19.723,44l2.146-2.144c-0.79-0.79-0.789-2.069,0-2.858S23.938,38.209,24.728,38.998z"/><path fill="#827717" d="M21.868,38.998c0.789-0.789,2.069-0.789,2.859,0L9.003,23.272c0.789,0.79,0.789,2.07,0,2.859s-2.069,0.79-2.859,0l15.725,15.725C21.078,41.066,21.079,39.787,21.868,38.998z"/><path fill="#C0CA33" d="M17.646 9.727H19.668V28.947H17.646z" transform="rotate(45.001 18.658 19.337)"/><path fill="#C0CA33" d="M6.92 28.547H8.942V31.579H6.92z" transform="rotate(45.001 7.931 30.063)"/></svg>