<svg xmlns="http://www.w3.org/2000/svg" viewBox="0 0 48 48" width="96" height="96"><path fill="#FFD54F" d="M40.463 7.538c-5.2-5.199-12.813-1.482-17.154 2.86-.323.323-.627.674-.921 1.036l14.179 14.179c.362-.294.713-.598 1.036-.921 4.341-4.34 8.057-11.955 2.86-17.154z"/><path fill="#FFECB3" d="M25.252 14.353c.318-.437.659-.841 1.017-1.198 2.438-2.437 9.372-7.578 12.764-4.188-4.523-4.521-11.261-.173-14.193 2.759a11.84 11.84 0 00-1.024 1.19l1.436 1.437z"/><path fill="#9E9D24" d="M24.728 38.998l13.59-13.591L22.594 9.684 9.003 23.272a2.023 2.023 0 01-2.859 2.859L4 28.276 19.723 44l2.146-2.144a2.02 2.02 0 112.859-2.858z"/><path fill="#827717" d="M21.868 38.998a2.023 2.023 0 012.859 0L9.003 23.272a2.023 2.023 0 01-2.859 2.859l15.725 15.725a2.02 2.02 0 01-.001-2.858z"/><path fill="#C0CA33" d="M24.738 11.826l1.43 1.43-13.591 13.59-1.43-1.43zM8.288 28.276l1.43 1.43-2.144 2.144-1.43-1.43z"/></svg>