<svg xmlns="http://www.w3.org/2000/svg" viewBox="0 0 48 48" width="96" height="96"><path fill="#7d8dca" d="M42 35c0 8-8.1 8-18 8S6 43 6 35s8.1-18 18-18 18 10 18 18z"/><path fill="#7d8dca" d="M30 8.6c-1.9 2.1-1-4.4-5 0-1.9 2.1-1-4.4-5 0-1.7 1.9-1.2-3.1-3.9-1.1L19 18h10l3-11c-.5.2-1.1.6-2 1.6z"/><path fill="#fdd835" d="M14 40c-.5 0-.9-.3-1-.8-.5-2.3-.5-4.7-.2-7.1.6-4.8 2.2-9.4 4.6-12.9.1-.1.1-.2.2-.3.3-.5.6-1 1.1-1.3.6-.4 1.1-.3 1.5-.2h.2c.8.2 1.5.3 2.2.4 2.2.3 4.4 0 6.2-.7.5-.2 1.1 0 1.3.6.2.5 0 1.1-.6 1.3-2.1.9-4.6 1.1-7.2.8-.7-.1-1.5-.2-2.4-.5h-.1c-.1.2-.3.4-.4.6-.1.2-.2.3-.3.4-2.2 3.2-3.7 7.5-4.3 12-.3 2.2-.2 4.3.2 6.4.1.5-.2 1.1-.8 1.2-.1.1-.1.1-.2.1z"/><path fill="#fdd835" d="M11 30c-.6 0-1-.4-1-1 0-3.4 4.1-11 8.8-12 .5-.1 1.1.2 1.2.8.1.5-.2 1.1-.8 1.2-3.6.7-7.2 7.3-7.2 10 0 .6-.4 1-1 1z"/></svg>