<?xml version="1.0" encoding="UTF-8" standalone="no"?>
<svg
   xmlns:dc="http://purl.org/dc/elements/1.1/"
   xmlns:cc="http://creativecommons.org/ns#"
   xmlns:rdf="http://www.w3.org/1999/02/22-rdf-syntax-ns#"
   xmlns:svg="http://www.w3.org/2000/svg"
   xmlns="http://www.w3.org/2000/svg"
   xmlns:sodipodi="http://sodipodi.sourceforge.net/DTD/sodipodi-0.dtd"
   xmlns:inkscape="http://www.inkscape.org/namespaces/inkscape"
   viewBox="0 0 48 48"
   width="96px"
   height="96px"
   version="1.1"
   id="svg6026"
   sodipodi:docname="18-saquinho.svg"
   inkscape:version="0.92.4 (5da689c313, 2019-01-14)">
  <metadata
     id="metadata6032">
    <rdf:RDF>
      <cc:Work
         rdf:about="">
        <dc:format>image/svg+xml</dc:format>
        <dc:type
           rdf:resource="http://purl.org/dc/dcmitype/StillImage" />
        <dc:title></dc:title>
      </cc:Work>
    </rdf:RDF>
  </metadata>
  <defs
     id="defs6030" />
  <sodipodi:namedview
     pagecolor="#ffffff"
     bordercolor="#666666"
     borderopacity="1"
     objecttolerance="10"
     gridtolerance="10"
     guidetolerance="10"
     inkscape:pageopacity="0"
     inkscape:pageshadow="2"
     inkscape:window-width="2490"
     inkscape:window-height="1376"
     id="namedview6028"
     showgrid="false"
     inkscape:zoom="12.458333"
     inkscape:cx="48"
     inkscape:cy="48"
     inkscape:window-x="70"
     inkscape:window-y="27"
     inkscape:window-maximized="1"
     inkscape:current-layer="svg6026" />
  <path
     fill="#43a047"
     d="M42,35c0,8-8.1,8-18,8S6,43,6,35s8.1-18,18-18S42,27,42,35z"
     id="path6016"
     style="fill:#7d8dca;fill-opacity:1" />
  <path
     fill="#43a047"
     d="M30,8.6c-1.9,2.1-1-4.4-5,0c-1.9,2.1-1-4.4-5,0c-1.7,1.9-1.2-3.1-3.9-1.1L19,18h10l3-11 C31.5,7.2,30.9,7.6,30,8.6z"
     id="path6018"
     style="fill:#7d8dca;fill-opacity:1" />
  <path
     fill="#fdd835"
     d="M14,40c-0.5,0-0.9-0.3-1-0.8c-0.5-2.3-0.5-4.7-0.2-7.1c0.6-4.8,2.2-9.4,4.6-12.9 c0.1-0.1,0.1-0.2,0.2-0.3c0.3-0.5,0.6-1,1.1-1.3c0.6-0.4,1.1-0.3,1.5-0.2l0.2,0c0.8,0.2,1.5,0.3,2.2,0.4c2.2,0.3,4.4,0,6.2-0.7 c0.5-0.2,1.1,0,1.3,0.6c0.2,0.5,0,1.1-0.6,1.3c-2.1,0.9-4.6,1.1-7.2,0.8c-0.7-0.1-1.5-0.2-2.4-0.5l-0.1,0c-0.1,0.2-0.3,0.4-0.4,0.6 c-0.1,0.2-0.2,0.3-0.3,0.4c-2.2,3.2-3.7,7.5-4.3,12c-0.3,2.2-0.2,4.3,0.2,6.4c0.1,0.5-0.2,1.1-0.8,1.2C14.1,40,14.1,40,14,40z"
     id="path6022" />
  <path
     fill="#fdd835"
     d="M11,30c-0.6,0-1-0.4-1-1c0-3.4,4.1-11,8.8-12c0.5-0.1,1.1,0.2,1.2,0.8c0.1,0.5-0.2,1.1-0.8,1.2 c-3.6,0.7-7.2,7.3-7.2,10C12,29.6,11.6,30,11,30z"
     id="path6024" />
</svg>
