<svg xmlns="http://www.w3.org/2000/svg" viewBox="0 0 48 48" width="96px" height="96px"><path fill="#c98d09" d="M33,4l-2,2l1,1c1.105,0,2,0.895,2,2s-0.895,2-2,2s-2-0.895-2-2l-1-1l-2,2l5,5l6-6L33,4z"/><rect width="24.042" height="4" x="20.479" y="14.5" fill="#ffc107" transform="rotate(-45.001 32.5 16.5)"/><path fill="#ffc107" d="M18,44c-3.542,0-6.478-2.645-6.938-6.063C7.645,37.478,5,34.542,5,31 c0-3.426,2.594-6.158,6.607-6.961C16.743,23.012,23.706,23,24,23h2v2c0,0.294-0.012,7.257-1.039,12.393 C24.158,41.406,21.426,44,18,44z M21.96,27.04c-2.393,0.076-6.43,0.294-9.567,0.921C11.597,28.12,9,28.811,9,31 c0,1.654,1.346,3,3,3h3v3c0,1.654,1.346,3,3,3c2.189,0,2.88-2.597,3.039-3.393C21.666,33.47,21.885,29.433,21.96,27.04z"/><path fill="#c98d09" d="M27,28c-0.256,0-0.512-0.098-0.707-0.293l-5-5c-0.391-0.391-0.391-1.023,0-1.414 s1.023-0.391,1.414,0l5,5c0.391,0.391,0.391,1.023,0,1.414C27.512,27.902,27.256,28,27,28z"/><path fill="#c98d09" d="M27.99,27.01c-0.256,0-0.512-0.098-0.707-0.293l-5-5c-0.391-0.391-0.391-1.023,0-1.414 s1.023-0.391,1.414,0l5,5c0.391,0.391,0.391,1.023,0,1.414C28.502,26.912,28.246,27.01,27.99,27.01z"/></svg>