<svg xmlns="http://www.w3.org/2000/svg" viewBox="0 0 48 48" width="344" height="344"><path fill="#B0BEC5" d="M24.062 26.767l-9.576 9.576-2.121 3.536L7.414 42 6 40.586l2.121-4.95 3.536-2.121 9.576-9.576 2.829 2.828z"/><path fill="#FFC107" d="M27.597 26.06c-2.121 4.95-3.313 2.343-5.656 0-2.343-2.343-4.95-3.535 0-5.656 4.949-2.122 9.192-10.607 11.313-12.729s4.729-2.343 7.071 0c2.343 2.343 2.121 4.95 0 7.071S29.719 21.11 27.597 26.06z"/><path fill="#455A64" d="M21.94 26.06c2.343 2.343 3.535 4.95 5.656 0l-5.656-5.656c-4.95 2.12-2.342 3.313 0 5.656z"/></svg>