<svg xmlns="http://www.w3.org/2000/svg" viewBox="0 0 48 48" width="344px" height="344px"><path fill="#B0BEC5" d="M24.062,26.767l-9.576,9.576l-2.121,3.536L7.414,42L6,40.586l2.121-4.95l3.536-2.121l9.576-9.576L24.062,26.767z"/><path fill="#FFC107" d="M27.597,26.06c-2.121,4.95-3.313,2.343-5.656,0l0,0c-2.343-2.343-4.95-3.535,0-5.656c4.949-2.122,9.192-10.607,11.313-12.729s4.729-2.343,7.071,0l0,0c2.343,2.343,2.121,4.95,0,7.071S29.719,21.11,27.597,26.06z"/><path fill="#455A64" d="M21.94,26.06c2.343,2.343,3.535,4.95,5.656,0l-5.656-5.656C16.99,22.524,19.598,23.717,21.94,26.06z"/></svg>