<svg xmlns="http://www.w3.org/2000/svg" viewBox="0 0 48 48" width="96" height="96"><path fill="#455a64" d="M31 16c0 .6-.4 1-1 1h-8c-.6 0-1-.4-1-1V7c0-.6.4-1 1-1h8c.6 0 1 .4 1 1v9z"/><path fill="#607d8b" d="M24 7c0-.6-.4-1-1-1h-2c-1.4 0-2.6 1.2-2.7 1.3l-2 2C12.9 12.6 11 18.1 11 36h2c0-12.5 1-18.6 2.6-22.2L24 11V7z"/><path fill="#263238" d="M34 9l-3 5V7h3m-14 4c-.4 0-.7-.2-.9-.6-.2-.5 0-1.1.4-1.3l2-1c.5-.2 1.1 0 1.3.4.2.5 0 1.1-.4 1.3l-2 1c-.1.2-.2.2-.4.2z"/><path fill="#37474f" d="M15 17c-3.3 0-6-2.7-6-6s2.7-6 6-6 6 2.7 6 6-2.7 6-6 6zm0-10c-2.2 0-4 1.8-4 4s1.8 4 4 4 4-1.8 4-4-1.8-4-4-4z"/><path fill="#63590d" d="M21 15l-2 8h14l-2-8H21z"/><path fill="#63590d" d="M36.9 29s-1.3-.1-1.3-1 .8-1 .8-1c-1-2.7-4.3-5.1-6.8-6h-7.2c-2.5.9-5.8 3.3-6.8 6 0 0 .8 0 .8 1s-1.3 1-1.3 1c-.1.6.9 1.3.9 2 0 1.3-.8 2.6-.5 4 0 0 1.3 0 1.3 1s-.7 1-.7 1c1.1 2.9 3.9 5.6 5.9 7h8c2-1.4 4.8-4.1 5.9-7 0 0-.7 0-.7-1s1.3-1 1.3-1c.4-1.4-.5-2.7-.5-4 0-.7 1-1.4.9-2z"/><path fill="#ffd600" d="M20.5 17h11l-.5-2H21l-.5 2z"/><path fill="#827717" d="M26 21h-.9c-.9 1-2 2.8-2.6 6h7.1c-.6-3.2-1.7-5-2.6-6h-1zm5.6 6h4.8c-.4-4-.2-6-7.2-6 .8 1.3 1.9 3.5 2.4 6zM27 44c.8-1.5 1.8-3.9 2.5-7h-6.9c.6 3.1 1.7 5.5 2.5 7H27zm-5-12c0 1 .1 2 .2 3h7.6c.1-1 .2-2 .2-3 0-1.1-.1-2.1-.2-3h-7.7c0 .9-.1 1.9-.1 3zm.8-11c-7 0-6.8 2-7.2 6h4.8c.5-2.5 1.6-4.7 2.4-6zM20 32c0-1.1.1-2.1.1-3h-5c-.1.7-.1 1.3-.1 2 0 1.3.2 2.6.5 4h4.7c-.1-1-.2-2-.2-3zm9.2 12h1.3c2.1-1.9 4.4-4.4 5.3-7h-4.4c-.5 2.9-1.4 5.3-2.2 7zm7.7-15h-5c.1.9.1 1.9.1 3 0 1-.1 2-.2 3h4.7c.3-1.4.5-2.7.5-4 0-.7-.1-1.3-.1-2zm-16.4 8h-4.4c.9 2.6 3.2 5.1 5.3 7h1.3c-.7-1.7-1.6-4.1-2.2-7zM20 19h12l-.5-2h-11l-.5 2z"/></svg>