<svg xmlns="http://www.w3.org/2000/svg" viewBox="0 0 48 48" width="96px" height="96px"><path fill="#673ab7" d="M40.9,24.4c1.1-1,1.8-2.4,2-3.9c0.6-2.4,0.1-5.1-0.4-7.4c-0.8-3.7-2.4-7.2-3.5-8.2 C38.5,4.3,37.9,4,37.2,4c-0.4,0-0.7,0.1-1,0.2c-0.7,0.3-4.8,2.1-7.6,5.6l-0.1,0.2c-0.2,0.2-0.4,0.4-0.5,0.7c0,0-0.1,0.1-0.1,0.1 c0,0,0,0.1-0.1,0.1c-1.5,1.9-2.5,3.5-2.8,6.4c-0.2,2.4-1.4,3.9-2.1,4.7c-0.7,0.7-2.5,1.7-4.3,2.1c-2.6,0.2-5.4,1.6-7.7,3.6 l-0.2,0.2c-0.1,0.1-0.2,0.2-0.3,0.3c-3.2,2.9-5,6.7-5.2,7.2C5,35.8,4.6,36.8,5.8,38c1.2,1.2,7.2,4,12.6,4c9.6,0.3,9.4-6.2,9.5-6.8 c0.2-1.7-0.3-3.8-0.7-4.9c-0.2-0.5-0.4-1.1-0.5-1.6c-0.5-1.6-0.9-2.9-0.4-3.5l0,0c0.1-0.1,0.3-0.3,0.8-0.3c0.7,0,1.6,0.3,2.6,0.6 C30.9,26.3,33,27,35,27S39.4,25.9,40.9,24.4z"/><path fill="#bbdefb" d="M39.5 23c-4.5 4.4-9.9.5-11.1-.6C26 20 26.9 15 30.1 11.2l.1-.2c3.5-4 6.1-1.1 7.2-.1C39.6 13.1 43 19.5 39.5 23zM24.2 38.6c4.3-4.6-.1-10-1.2-11.2-2.3-2.4-7.2-1.5-10.8 1.8L12 29.3c-3.9 3.6-1.1 6.3-.1 7.4 2.1 2.3 9.2 5.3 12.6 1.6L24.2 38.6z"/><path fill="#fff" d="M20 38c-.6 0-1-.4-1-1 0-.5.4-1 1-1 .3 0 2-.2 2-3 0-.6.4-1 1-1s1 .4 1 1C24 37 21.4 38 20 38zM35 23c-.6 0-1-.4-1-1 0-.5.4-1 1-1 .3 0 2-.2 2-3 0-.6.4-1 1-1s1 .4 1 1C39 22 36.4 23 35 23z"/></svg>