<?xml version="1.0" encoding="UTF-8" standalone="no"?>
<svg
   xmlns:dc="http://purl.org/dc/elements/1.1/"
   xmlns:cc="http://creativecommons.org/ns#"
   xmlns:rdf="http://www.w3.org/1999/02/22-rdf-syntax-ns#"
   xmlns:svg="http://www.w3.org/2000/svg"
   xmlns="http://www.w3.org/2000/svg"
   xmlns:sodipodi="http://sodipodi.sourceforge.net/DTD/sodipodi-0.dtd"
   xmlns:inkscape="http://www.inkscape.org/namespaces/inkscape"
   viewBox="0 0 48 48"
   width="96px"
   height="96px"
   version="1.1"
   id="svg4814"
   sodipodi:docname="3-copia_hd_laila.svg"
   inkscape:version="0.92.4 (5da689c313, 2019-01-14)">
  <metadata
     id="metadata4820">
    <rdf:RDF>
      <cc:Work
         rdf:about="">
        <dc:format>image/svg+xml</dc:format>
        <dc:type
           rdf:resource="http://purl.org/dc/dcmitype/StillImage" />
        <dc:title></dc:title>
      </cc:Work>
    </rdf:RDF>
  </metadata>
  <defs
     id="defs4818" />
  <sodipodi:namedview
     pagecolor="#ffffff"
     bordercolor="#666666"
     borderopacity="1"
     objecttolerance="10"
     gridtolerance="10"
     guidetolerance="10"
     inkscape:pageopacity="0"
     inkscape:pageshadow="2"
     inkscape:window-width="2490"
     inkscape:window-height="1376"
     id="namedview4816"
     showgrid="false"
     inkscape:zoom="6.2291667"
     inkscape:cx="3.2654184"
     inkscape:cy="10.48286"
     inkscape:window-x="70"
     inkscape:window-y="27"
     inkscape:window-maximized="1"
     inkscape:current-layer="svg4814" />
  <path
     fill="#78909C"
     d="M6,28v10c0,2.209,1.791,4,4,4h28c2.209,0,4-1.791,4-4V28H6z"
     id="path4806" />
  <path
     fill="#455A64"
     d="M42,28c0,2.209-1.791,4-4,4H10c-2.209,0-4-1.791-4-4l3-18c0.219-2.094,1.791-4,4-4h22c2.209,0,3.688,1.75,4,4L42,28z"
     id="path4808" />
  <path
     fill="#BBDEFB"
     d="M24,11c-6.627,0-12,3.134-12,7c0,3.865,5.373,7,12,7c6.627,0,12-3.135,12-7C36,14.134,30.627,11,24,11z M24,19.555c-1.473,0-2.667-0.695-2.667-1.555s1.194-1.556,2.667-1.556s2.666,0.696,2.666,1.556S25.473,19.555,24,19.555z"
     id="path4812" />
  <path
     id="path4822"
     d="M 36.473433,34.215592 C 35.857782,34.215592 35.316528,34.527512 35,35 c -0.316527,-0.472488 -0.857781,-0.784408 -1.473432,-0.784408 -0.976714,0 -1.768631,0.784579 -1.768631,1.75225 0,1.743547 2.755754,2.583754 3.242063,3.708067 0.48631,-1.124313 3.242064,-1.950016 3.242064,-3.708067 0,-0.967671 -0.791917,-1.75225 -1.768631,-1.75225"
     inkscape:connector-curvature="0"
     style="fill:#ff0000;stroke-width:0.17063493;stroke:#455a64;stroke-opacity:1" />
</svg>
