<svg xmlns="http://www.w3.org/2000/svg" viewBox="0 0 48 48" width="96px" height="96px"><path fill="#b0bec5" d="M35,5H7C4.791,5,3,6.791,3,9v17c0,2.208,1.791,4,4,4h28c2.209,0,4-1.792,4-4V9 C39,6.791,37.209,5,35,5z"/><path fill="#607d8b" d="M4.088,6.273C3.627,6.766,3.293,7.371,3.127,8.047L21,21L38.873,8.047 c-0.166-0.676-0.5-1.281-0.961-1.773L21,18.531L4.088,6.273z"/><path fill="#cfd8dc" d="M41,16H13c-2.209,0-4,1.791-4,4v17c0,2.208,1.791,4,4,4h28c2.209,0,4-1.792,4-4V20 C45,17.791,43.209,16,41,16z"/><path fill="#78909c" d="M10.088,17.273c-0.461,0.492-0.795,1.098-0.961,1.773L27,32l17.873-12.953 c-0.166-0.676-0.5-1.281-0.961-1.773L27,29.531L10.088,17.273z"/><path fill="#2196f3" d="M48 40L39 32 39 48z"/><path fill="#2196f3" d="M27 37H40V43H27z"/></svg>