<svg xmlns="http://www.w3.org/2000/svg" viewBox="0 0 128 128" width="344" height="344"><path fill="#7CA5C6" d="M104 114H44c-5.5 0-10-4.5-10-10V24c0-5.5 4.5-10 10-10h60c5.5 0 10 4.5 10 10v80c0 5.5-4.5 10-10 10z"/><path fill="#FFF" d="M94 114H34c-5.5 0-10-4.5-10-10V24c0-5.5 4.5-10 10-10h60c5.5 0 10 4.5 10 10v80c0 5.5-4.5 10-10 10z"/><path fill="#7CA5C6" d="M89 68.5H39c-2.8 0-5-2.2-5-5v-35c0-2.8 2.2-5 5-5h50c2.8 0 5 2.2 5 5v35c0 2.8-2.2 5-5 5z"/><path fill="#454B54" d="M94 117H34c-7.2 0-13-5.8-13-13V24c0-7.2 5.8-13 13-13h60c7.2 0 13 5.8 13 13v80c0 7.2-5.8 13-13 13zM34 17c-3.9 0-7 3.1-7 7v80c0 3.9 3.1 7 7 7h60c3.9 0 7-3.1 7-7V24c0-3.9-3.1-7-7-7H34z"/><path fill="#C7D7E2" d="M64 72.5a17.5 17.5 0 100 35 17.5 17.5 0 100-35z"/><path fill="#FFF" d="M64 85a5 5 0 100 10 5 5 0 100-10z"/></svg>