<svg xmlns="http://www.w3.org/2000/svg" viewBox="0 0 128 128" width="344px" height="344px"><path fill="#7CA5C6" d="M104,114H44c-5.5,0-10-4.5-10-10V24c0-5.5,4.5-10,10-10h60c5.5,0,10,4.5,10,10v80C114,109.5,109.5,114,104,114z"/><path fill="#FFF" d="M94,114H34c-5.5,0-10-4.5-10-10V24c0-5.5,4.5-10,10-10h60c5.5,0,10,4.5,10,10v80C104,109.5,99.5,114,94,114z"/><path fill="#7CA5C6" d="M89,68.5H39c-2.8,0-5-2.2-5-5v-35c0-2.8,2.2-5,5-5h50c2.8,0,5,2.2,5,5v35C94,66.3,91.8,68.5,89,68.5z"/><path fill="#454B54" d="M94,117H34c-7.2,0-13-5.8-13-13V24c0-7.2,5.8-13,13-13h60c7.2,0,13,5.8,13,13v80C107,111.2,101.2,117,94,117z M34,17c-3.9,0-7,3.1-7,7v80c0,3.9,3.1,7,7,7h60c3.9,0,7-3.1,7-7V24c0-3.9-3.1-7-7-7H34z"/><path fill="#C7D7E2" d="M64 72.5A17.5 17.5 0 1 0 64 107.5A17.5 17.5 0 1 0 64 72.5Z"/><path fill="#FFF" d="M64 85A5 5 0 1 0 64 95A5 5 0 1 0 64 85Z"/></svg>