<?xml version="1.0" encoding="UTF-8" standalone="no"?>
<svg
   xmlns:dc="http://purl.org/dc/elements/1.1/"
   xmlns:cc="http://creativecommons.org/ns#"
   xmlns:rdf="http://www.w3.org/1999/02/22-rdf-syntax-ns#"
   xmlns:svg="http://www.w3.org/2000/svg"
   xmlns="http://www.w3.org/2000/svg"
   xmlns:sodipodi="http://sodipodi.sourceforge.net/DTD/sodipodi-0.dtd"
   xmlns:inkscape="http://www.inkscape.org/namespaces/inkscape"
   viewBox="0 0 128 128"
   version="1.1"
   id="svg5739"
   sodipodi:docname="6-moedeira.svg"
   inkscape:version="0.92.4 (5da689c313, 2019-01-14)">
  <metadata
     id="metadata5745">
    <rdf:RDF>
      <cc:Work
         rdf:about="">
        <dc:format>image/svg+xml</dc:format>
        <dc:type
           rdf:resource="http://purl.org/dc/dcmitype/StillImage" />
        <dc:title></dc:title>
      </cc:Work>
    </rdf:RDF>
  </metadata>
  <defs
     id="defs5743" />
  <sodipodi:namedview
     pagecolor="#ffffff"
     bordercolor="#666666"
     borderopacity="1"
     objecttolerance="10"
     gridtolerance="10"
     guidetolerance="10"
     inkscape:pageopacity="0"
     inkscape:pageshadow="2"
     inkscape:window-width="2490"
     inkscape:window-height="1376"
     id="namedview5741"
     showgrid="false"
     inkscape:zoom="6.607029"
     inkscape:cx="32.768716"
     inkscape:cy="62.025835"
     inkscape:window-x="70"
     inkscape:window-y="27"
     inkscape:window-maximized="1"
     inkscape:current-layer="svg5739" />
  <path
     fill="#f8e390"
     d="M90.9,104.5H37.1c-12.2,0-21.5-10.8-19.8-22.8l4.3-30c1.4-9.9,9.8-17.2,19.8-17.2h45.3 c10,0,18.399,7.3,19.8,17.2l4.3,30C112.5,93.7,103.1,104.5,90.9,104.5"
     id="path5731"
     style="fill:#f8b790;fill-opacity:1" />
  <path
     fill="#faebb2"
     d="M86.7,34.5H41.4c-0.826,0-1.642,0.05-2.442,0.147L35,48.3c-4.2,14.5,3,28.7,15.1,35 c4.2,2.4,8.3,3,10,3.101C61.4,86.6,62.7,86.6,64,86.6l0,0l0,0c0.102,0.001,0.207,0.002,0.308,0.002h0h0.001 c19.492-0.001,34.179-18.8,28.736-38.141c-0.001-0.002-0.001-0.005-0.002-0.007c-0.002-0.008-0.004-0.016-0.007-0.024 c0-0.001-0.001-0.004-0.002-0.005c-0.001-0.005-0.002-0.008-0.004-0.013c-0.003-0.011-0.006-0.021-0.009-0.031 c-0.004-0.013-0.008-0.026-0.011-0.039c-0.002-0.006-0.004-0.014-0.006-0.02c-0.002-0.007-0.004-0.013-0.006-0.02l0,0l-3.961-13.665 C88.271,34.546,87.491,34.5,86.7,34.5"
     id="path5733"
     style="fill:#facdb2;fill-opacity:1" />
  <path
     fill="#e0cd83"
     d="M89.1,34.7L93,48.3l0,0c0.002,0.007,0.004,0.013,0.006,0.02c0.002,0.006,0.004,0.014,0.006,0.02 c0.004,0.013,0.008,0.026,0.011,0.039c0.003,0.011,0.006,0.021,0.009,0.031c0.001,0.005,0.002,0.008,0.004,0.013 c0,0.001,0.001,0.004,0.002,0.005c0.002,0.008,0.004,0.016,0.007,0.024c0.001,0.002,0.001,0.005,0.002,0.007 c5.444,19.342-9.242,38.143-28.736,38.141h-0.001l0,0l0,0h0c-0.103,0-0.205-0.001-0.308-0.002l0,0l0,0c-0.3,0-0.6,0-0.9,0 c-0.402,0.027-0.812,0.039-1.227,0.039c-1.132,0-2.302-0.093-3.473-0.239l-21.5-2.5c-0.481-0.055-0.95-0.082-1.404-0.082 C23.6,83.817,21.277,102.081,33.8,104.2c1.095,0.199,2.19,0.299,3.286,0.3c0.005,0,0.009,0,0.015,0l0,0h53.8 c6.1,0,11.5-2.7,15.162-6.9c3.638-4.2,5.538-9.9,4.638-15.9l-4.3-30C105.1,42.7,97.9,35.8,89.1,34.7"
     id="path5735"
     style="fill:#e0a683;fill-opacity:1" />
  <path
     fill="#454b54"
     d="M90.9 107.5H37.1c-6.7 0-13-2.9-17.4-7.9s-6.3-11.7-5.4-18.3l3.3-20.1c.3-1.6 1.8-2.7 3.4-2.5 1.6.3 2.7 1.8 2.5 3.4l-3.3 20c-.7 4.8.8 9.8 4 13.5s7.9 5.9 12.8 5.9h53.9c4.9 0 9.6-2.1 12.8-5.9 3.2-3.7 4.7-8.7 4-13.5l-3.3-19.9c-.3-1.6.8-3.2 2.5-3.4 1.6-.3 3.2.8 3.4 2.5l3.3 20c1 6.7-1 13.3-5.4 18.4C103.9 104.6 97.6 107.5 90.9 107.5zM21.506 56.201c-.21 0-.422-.015-.636-.045-2.461-.348-4.174-2.625-3.826-5.085C18.771 38.861 28.972 30 41.3 30h45.3c12.328 0 22.529 8.861 24.257 21.07.348 2.461-1.365 4.738-3.826 5.086-2.451.351-4.737-1.364-5.086-3.825C100.853 44.606 94.398 39 86.6 39H41.3c-7.799 0-14.252 5.606-15.344 13.33C25.638 54.577 23.711 56.201 21.506 56.201zM59 28.5c-.26 0-.52-.03-.78-.08-.26-.05-.51-.13-.75-.23-.24-.1-.47-.22-.69-.36-.22-.15-.42-.32-.61-.5-.18-.19-.35-.39-.5-.61-.14-.22-.26-.45-.36-.69-.1-.24-.18-.49-.23-.75C55.03 25.02 55 24.76 55 24.5c0-1.05.43-2.09 1.17-2.83.19-.18.39-.35.61-.5.22-.14.45-.26.69-.36.24-.1.49-.18.75-.23 1.3-.26 2.68.16 3.61 1.09C62.57 22.41 63 23.45 63 24.5c0 .26-.03.52-.08.78-.05.26-.13.51-.23.75-.1.24-.22.47-.36.69-.15.22-.32.42-.5.61-.19.18-.39.35-.61.5-.22.14-.45.26-.69.36-.24.1-.49.18-.75.23C59.52 28.47 59.26 28.5 59 28.5zM69 28.5c-1.05 0-2.08-.43-2.83-1.17-.18-.19-.351-.39-.5-.61-.14-.22-.26-.45-.36-.69-.1-.24-.18-.49-.229-.75C65.02 25.02 65 24.76 65 24.5c0-1.05.43-2.08 1.17-2.83.93-.93 2.31-1.36 3.61-1.09.26.05.51.13.75.23.239.1.47.22.689.36.22.15.42.32.61.5C72.569 22.42 73 23.45 73 24.5c0 .26-.03.52-.08.78-.05.26-.13.51-.23.75-.1.24-.22.47-.37.69-.14.22-.31.42-.489.61-.19.18-.391.35-.61.5-.22.14-.45.26-.689.36-.24.1-.49.18-.75.23C69.52 28.47 69.26 28.5 69 28.5z"
     id="path5737" />
</svg>
