<svg xmlns="http://www.w3.org/2000/svg" viewBox="0 0 48 34.033" width="344" height="243.906"><path d="M3.96 6h39v22h-39z" fill="#a5d6a7"/><path d="M3.96 28h40V6h-40zm38-20v18h-36V8z" fill="#388e3c"/><path d="M11.96 15a2 2 0 100 4 2 2 0 100-4zm24 0a2 2 0 100 4 2 2 0 100-4zm-12-5a7 7 0 100 14 7 7 0 100-14zm14.779-3a2.978 2.978 0 00-.78 2 3 3 0 003 3c.773 0 1.469-.3 2-.779V7zM9.18 7H4.96v4.221a2.978 2.978 0 002 .779 3 3 0 003-3c0-.772-.3-1.468-.78-2zm0 20a2.978 2.978 0 00.779-2 3 3 0 00-3-3c-.772 0-1.468.3-2 .779V27zm33.779 0v-4.221a2.978 2.978 0 00-2-.779 3 3 0 00-3 3c0 .772.3 1.468.779 2z" fill="#388e3c"/><path fill="none" d="M14.047 28.214h12.722v5.418H14.047z"/><path fill="none" d="M17.338 26.047h3.251v5.9h-3.251z"/></svg>