<svg xmlns="http://www.w3.org/2000/svg" viewBox="0 0 48 48" width="96px" height="96px"><path fill="#5D4037" d="M42,39.001c0,1.104-0.896,2-2,2H8c-1.104,0-2-0.896-2-2v-32c0-1.104,0.896-2,2-2h32c1.104,0,2,0.896,2,2V39.001z"/><path fill="#3E2723" d="M8 7.001H40V21.001H8zM8 23.001H40V39.001000000000005H8z"/><path fill="#ECEFF1" d="M36.358,18.293L37,17.633v-3.497l-0.08-0.053L37,14.001v-4.1l-1.126-0.737c-0.463-0.303-1.081-0.176-1.384,0.287c-0.128,0.195-0.162,0.417-0.145,0.632c-0.094-0.035-0.187-0.06-0.283-0.065L33.947,9.68c-0.177-0.523-0.744-0.804-1.268-0.627c-0.235,0.08-0.411,0.245-0.528,0.443c-0.055-0.092-0.114-0.182-0.199-0.255C31.679,9.006,31.319,8.963,31,9.064V9c0-0.552-0.447-1-1-1s-1,0.448-1,1v0.953l-1.209-1.564c-0.338-0.437-0.965-0.518-1.401-0.18c-0.438,0.339-0.519,0.967-0.18,1.403l0.074,0.096l-0.243,0.249L25.947,9.68c-0.177-0.523-0.744-0.804-1.268-0.627c-0.235,0.08-0.411,0.245-0.528,0.443c-0.055-0.092-0.114-0.182-0.199-0.255C23.679,9.006,23.319,8.963,23,9.064V9c0-0.552-0.447-1-1-1s-1,0.448-1,1v0.953l-1.209-1.564c-0.338-0.437-0.965-0.518-1.401-0.18c-0.438,0.339-0.519,0.967-0.18,1.403l0.074,0.096l-0.243,0.249L17.947,9.68c-0.177-0.523-0.744-0.804-1.268-0.627c-0.235,0.08-0.411,0.245-0.528,0.443c-0.055-0.092-0.114-0.182-0.199-0.255C15.679,9.006,15.319,8.963,15,9.064V9c0-0.552-0.447-1-1-1s-1,0.448-1,1v0.953l-1.209-1.564c-0.338-0.437-0.965-0.518-1.401-0.18c-0.438,0.339-0.519,0.967-0.18,1.403l0.074,0.096l-1.001,1.028c-0.386,0.396-0.376,1.029,0.02,1.414c0.012,0.012,0.027,0.015,0.039,0.025c-0.063,0.057-0.129,0.107-0.178,0.181c-0.304,0.463-0.174,1.083,0.289,1.385l0.488,0.319l-0.658,0.676c-0.279,0.287-0.344,0.696-0.213,1.047C9,15.986,8.979,16.209,9.053,16.428l0.038,0.111c-0.174,0.434-0.043,0.938,0.362,1.202l0.059,0.038l0.184,0.541c0.177,0.523,0.744,0.805,1.268,0.627c0.068-0.023,0.119-0.068,0.179-0.104c0.268,0.167,0.577,0.182,0.854,0.086c0.211,0.079,0.436,0.073,0.646,0.006V19c0,0.553,0.447,1,1,1s1-0.447,1-1v-0.951l1.209,1.563c0.338,0.438,0.965,0.518,1.401,0.18c0.258-0.199,0.375-0.498,0.372-0.801c0.112,0.002,0.226-0.005,0.338-0.043c0.234-0.08,0.411-0.245,0.528-0.442c0.055,0.092,0.114,0.182,0.199,0.255c0.273,0.234,0.633,0.277,0.952,0.176V19c0,0.553,0.447,1,1,1s1-0.447,1-1v-0.951l1.209,1.563c0.338,0.438,0.965,0.518,1.401,0.18c0.402-0.311,0.485-0.859,0.237-1.285c0.001,0,0.001-0.001,0.001-0.001c0.055,0.092,0.114,0.182,0.199,0.255c0.273,0.234,0.633,0.277,0.952,0.176V19c0,0.553,0.447,1,1,1s1-0.447,1-1v-0.951l1.209,1.563c0.338,0.438,0.965,0.518,1.401,0.18c0.402-0.311,0.485-0.859,0.237-1.285c0.001,0,0.001-0.001,0.001-0.001c0.055,0.092,0.114,0.182,0.199,0.255c0.273,0.234,0.633,0.277,0.952,0.176V19c0,0.553,0.447,1,1,1s1-0.447,1-1v-0.951l1.209,1.563c0.338,0.438,0.965,0.518,1.401,0.18c0.438-0.338,0.519-0.967,0.18-1.402L36.358,18.293z M32,14.943l-0.006-0.006c0.002-0.001,0.004-0.002,0.006-0.002V14.943z"/><path fill="#8BC34A" d="M37,32.768v-1.698c-0.016-0.019-0.023-0.034-0.04-0.053c0.012,0.011,0.027,0.015,0.04,0.024v-5.336c-0.234,0-0.44,0.016-0.576,0.039c0.179-0.179,0.179-0.626-0.089-0.805c-0.627-0.356-1.609,0.09-1.967,0.447c0.448-0.982,0-1.341-0.268-1.341c-1.071,0-1.249,0.268-1.607,0.537c0.267-0.537-0.982-1.161-1.878,0.446c-0.088-0.357-1.517-1.341-1.784,0.625c-0.983-0.804-1.876,0.626-1.43,1.341c-1.162-0.178-1.52,1.34-0.715,1.967c-0.715,0.357-0.895,1.877-0.357,1.697c-0.626,1.251-0.357,2.145,0.805,1.697c-1.431,2.505-0.091,3.129,0.445,2.684c-0.178,1.43,0.09,2.411,0.625,1.876c0.535,1.519,0.895,0.535,1.072,0.18c0.357,0.714,1.071,2.055,1.609,0.446c0.625,0.983,1.429,0.088,1.429-0.984c0.981,1.609,1.964,0.09,1.608-0.893c1.339,0.982,1.339-0.983,1.071-1.252c1.876,0.982,1.966-1.252,1.43-1.697C36.634,32.8,36.831,32.81,37,32.768z"/><path fill="#689F38" d="M28.716,29.437c-0.611,0.077-1.15,0.597-1.099,1.262c0.028,0.346,0.72,0.724,0.894,0.304c-0.566,0.255-0.589,1.243-0.513,1.751c0.053,0.345,0.263,0.633,0.646,0.564c0.438-0.077,0.477-0.493,0.557-0.848c-0.4,0.59-0.101,1.849,0.408,2.288c0.177,0.154,0.572,0.411,0.807,0.247c0.222-0.156,0.266-0.659,0.188-0.891c0.101,0.608,0.72,1.323,1.327,1.458c0.256,0.056,0.572,0.026,0.649-0.265c0.072-0.27,0.009-0.862-0.304-0.973c0.3,0.241,0.955,0.355,1.327,0.262c0.695-0.176,0.968-1.329,0.155-1.546c0.297,0.188,0.963,0.29,1.281,0.124c0.44-0.23,0.469-1.477-0.129-1.347c0.451,0.258,1.02-0.169,1.247-0.53c0.364-0.577,0.654-1.896-0.405-1.922c0.595-0.005-3.967-3.155-3.807-2.691c-0.037-0.414-0.482-0.957-0.951-0.723c-0.51,0.256-0.627,1.272-0.266,1.659c-0.209-0.292-0.884-1.089-1.264-0.576c-0.32,0.433-0.21,1.249,0.238,1.537c-0.278-0.313-0.61-0.746-1.092-0.709c-0.269,0.021-0.479,0.342-0.546,0.59c-0.053,0.195-0.042,0.514,0.08,0.691c0.089,0.13,0.314,0.204,0.387,0.282"/><path fill="#33691E" d="M30.556,30.013c0.256,0.467,0.672,0.67,1.093,0.258c-0.298,0.474-0.015,2.237,0.921,1.814c0.307-0.14,0.224-0.734,0.102-0.961c0.182,0.453,0.762,1.387,1.4,1.367c0.875-0.028,1.133-1.364,0.358-1.629c0.671,0.201,1.511,0.619,2.11,0.005c0.718-0.735,0.212-1.974-0.648-2.281c0.719,0.323,1.279-0.409,0.922-1.052c-0.428-0.771-1.293-0.768-1.902-0.176c0.17-0.492,0.16-1.184-0.369-1.5c-1.025-0.615-1.259,0.519-1.262,1.281c-0.158-0.41-1.004-1.291-1.585-0.979c-0.7,0.378-0.305,1.638,0.24,2.141c-0.28-0.229-0.702-0.583-0.972-0.351c-0.617,0.528,0.244,0.924,0.854,0.924C31.817,28.875,30.263,28.977,30.556,30.013z"/><path fill="#FFCC80" d="M38 2H40V45H38zM35 2.001H37V45.001H35z"/><path fill="#FF7043" d="M25 28.75c0-.691-1.231-1.25-1.231-1.25S18.846 25 15.154 25s-4.923 1.25-4.923 1.25C9 27.5 9 28.059 9 28.75l0 0C9 29.439 9.55 30 10.231 30h13.537C24.45 30 25 29.439 25 28.75L25 28.75zM25 35.75c0-.691-1.231-1.25-1.231-1.25S18.846 32 15.154 32s-4.923 1.25-4.923 1.25C9 34.5 9 35.059 9 35.75l0 0C9 36.439 9.55 37 10.231 37h13.537C24.45 37 25 36.439 25 35.75L25 35.75z"/><g><path fill="#BCAAA4" d="M32 15c0-.551.447-1 1-1l0 0c.553 0 1 .449 1 1v2c0 .553-.447 1-1 1l0 0c-.553 0-1-.447-1-1V15zM29.458 14.169c-.358.42-.99.469-1.41.109l0 0c-.42-.359-.468-.99-.108-1.41l1.301-1.52c.358-.418.99-.469 1.41-.107l0 0c.42.359.468.99.108 1.41L29.458 14.169zM24.105 13.765c.246-.494.847-.695 1.342-.447l0 0c.494.246.694.846.447 1.34L25 16.446c-.246.494-.847.695-1.342.447l0 0c-.494-.246-.693-.846-.447-1.34L24.105 13.765zM11.985 16.029c-.338-.436-.259-1.064.18-1.402l0 0c.437-.338 1.064-.258 1.402.18l1.223 1.582c.339.436.259 1.064-.18 1.402l0 0c-.437.338-1.063.258-1.401-.18L11.985 16.029zM21.283 10.869c.384-.396 1.018-.406 1.414-.02l0 0c.396.385.405 1.018.02 1.414l-1.395 1.434c-.385.396-1.018.404-1.415.02l0 0c-.396-.385-.403-1.018-.019-1.414L21.283 10.869zM14.547 12.163c.463.301.593.922.289 1.385l0 0c-.303.461-.922.592-1.385.287l-1.672-1.096c-.463-.303-.592-.922-.289-1.385l0 0c.303-.463.921-.59 1.384-.287L14.547 12.163zM19.547 15.26c.463.301.593.922.289 1.385l0 0c-.303.461-.922.592-1.385.287l-1.672-1.096c-.463-.303-.592-.922-.289-1.385l0 0c.303-.463.921-.59 1.384-.287L19.547 15.26z"/></g><g><path fill="#FFAB91" d="M10.365 30h1.001c.046-1.612-.362-2.977-.827-3.982-.211.137-.308.232-.308.232-.185.188-.335.355-.468.516C10.117 27.627 10.402 28.731 10.365 30zM22.488 30h1.001c.03-1.053-.13-2.003-.379-2.813-.328-.15-.763-.342-1.277-.552C22.211 27.514 22.527 28.667 22.488 30zM14.489 30c.062-2.15-.69-3.858-1.291-4.863-.396.059-.744.132-1.051.213.535.819 1.404 2.5 1.341 4.65H14.489zM20.366 30c.05-1.75-.437-3.209-.946-4.233-.446-.138-.906-.267-1.371-.378.537.833 1.379 2.494 1.316 4.611H20.366zM17.489 30c.063-2.205-.729-3.945-1.337-4.939C15.814 25.025 15.479 25 15.154 25c-.085 0-.163.004-.245.005.442.597 1.653 2.473 1.579 4.995H17.489z"/><g><path fill="#FFAB91" d="M10.365 37h1.001c.046-1.612-.362-2.977-.827-3.982-.211.137-.308.232-.308.232-.185.188-.335.355-.468.516C10.117 34.627 10.402 35.731 10.365 37zM22.488 37h1.001c.03-1.053-.13-2.003-.379-2.813-.328-.15-.763-.342-1.277-.552C22.211 34.514 22.527 35.667 22.488 37zM14.489 37c.062-2.15-.69-3.858-1.291-4.863-.396.059-.744.132-1.051.213.535.819 1.404 2.5 1.341 4.65H14.489zM20.366 37c.05-1.75-.437-3.209-.946-4.233-.446-.138-.906-.267-1.371-.378.537.833 1.379 2.494 1.316 4.611H20.366zM17.489 37c.063-2.205-.729-3.945-1.337-4.939C15.814 32.025 15.479 32 15.154 32c-.085 0-.163.004-.245.005.442.597 1.653 2.473 1.579 4.995H17.489z"/></g></g></svg>