<svg xmlns="http://www.w3.org/2000/svg" viewBox="0 0 48 48" width="96px" height="96px"><path fill="#64b5f6" d="M25 7H45V41H25zM3 7H25V41H3z"/><path fill="#1976d2" d="M28 20H30V22H28zM28 24H30V26H28zM28 28H30V30H28zM28 32H30V34H28zM28 36H30V38H28z"/><path fill="#1565c0" d="M33 24H41V26H33zM33 28H41V30H33zM29 12H41V14H29zM29 16H41V18H29zM33 32H41V34H33zM11 24H21V26H11zM11 28H21V30H11zM7 12H21V14H7zM7 16H21V18H7zM7 24H9V26H7zM7 28H9V30H7z"/><path fill="#bbdefb" d="M14 5H34V43H14z"/><g><path fill="#42a5f5" d="M22 22H30V24H22zM18 10H30V12H18zM18 14H30V16H18zM22 26H30V28H22zM22 30H30V32H22zM22 34H30V36H22zM18 22H20V24H18zM18 26H20V28H18zM18 30H20V32H18zM18 34H20V36H18z"/></g></svg>