<svg xmlns="http://www.w3.org/2000/svg" viewBox="0 0 48 48" width="96" height="96"><path fill="#e0e0e0" d="M7 8h34l3 16H4L7 8z"/><path fill="#757575" d="M4 31.8L6.7 38h34.5l2.7-6.2V30H4v1.8z"/><path fill="#eee" d="M4 24h40v6H4v-6z"/><path fill="#bdbdbd" d="M10 30H8V20h20v2H10z"/><path fill="#212121" d="M28 8h8v16h-8V8z"/><path fill="#424242" d="M10 33h4v2h-4v-2zm6 0h4v2h-4v-2z"/><path fill="#da6a69" d="M12 26h10v2H12v-2z"/><path fill="#bdbdbd" d="M28 11h8v9h-8v-9z"/><path fill="#424242" d="M28 24h8v14h-8V24z"/><path d="M29 32h2v4h-2v-4zm4 0h2v4h-2v-4z"/></svg>