<svg xmlns="http://www.w3.org/2000/svg" viewBox="0 0 48 48" width="96" height="96"><path fill="#607d8b" d="M30 23c0 .6-.4 1-1 1H6s0-3-3-3v-4c0-.6.4-1 1-1h25c.6 0 1 .4 1 1v6zm15-9c0 .6-.4 1-1 1H4c-.6 0-1-.4-1-1v-2c0-.6.4-1 1-1h40c.6 0 1 .4 1 1v2z"/><path fill="#607d8b" d="M29.9 39.8c-4.5-4.3-6.5-9.9-6.9-15.8v-2h7v2c.3 4.1 1.3 8.2 4.8 11.3.4.4 0 .9 0 .9l-4.1 3.7c0-.1-.4.3-.8-.1z"/><path fill="#37474f" d="M44 13h2v3h-2v-3zM2 15h2v2H2v-2zm43 6h-2v-1s0-2-2-2v-1h4v4z"/><path fill="#37474f" d="M45 17h-2v-7c0-.6.4-1 1-1s1 .4 1 1v7zm-5 10c0 .6-.4 1-1 1h-2c-.6 0-1-.4-1-1v-4c0-1.8 1-3.5 1-4 0-1-1-1-1-1v-1h4v1s-1 0-1 1c0 .5 1 2.2 1 4v4z"/><path fill="#37474f" d="M44 14H3v4h41c.6 0 1-.4 1-1v-2c0-.6-.4-1-1-1zM31 37c-.2 0-.5-.1-.7-.3-4.2-3.9-5.3-10-5.3-12.7 0-.6.4-1 1-1s1 .4 1 1c0 2.8 1.2 8.1 4.7 11.3.4.4.4 1 .1 1.4-.3.2-.5.3-.8.3z"/><path fill="#37474f" d="M30 24h-7v-7h9v1s-2 0-2 2v4zM11 11v-1L8 8H7c-.6 0-1 .4-1 1v2h5zM6 24L2 36l7 2 3-14H6z"/><path fill="#37474f" d="M9 39c-.1 0-.2 0-.3-.1l-6-2c-.5-.2-.8-.7-.6-1.3.2-.5.7-.8 1.3-.6l6 2c.5.2.8.7.6 1.3-.2.4-.6.7-1 .7zm9.5-15l-1.4 3.6c-.1.1-.2.3-.3.4h-4.4l-1.3-1.3.9-2.6V24H9.9l-1.1 3.3 2.7 2.7H17c1.1 0 1.7-1.2 1.9-1.6l1.7-4.4h-2.1z"/><path fill="#37474f" d="M14.1 24H12c0 .1 0 .3.1.4l1 2c.2.4.5.6.9.6.1 0 .3 0 .4-.1.5-.2.7-.8.4-1.3l-.7-1.6z"/><path fill="#263238" d="M11.4 21c.4.4.4 1 0 1.4s-1 .4-1.4 0-1.7-2.3-1.3-2.7c.4-.4 2.3.9 2.7 1.3z"/><path d="M28 15c0 .6-.4 1-1 1h-5c-.6 0-1-.4-1-1v-2c0-.6.4-1 1-1h5c.6 0 1 .4 1 1v2z"/></svg>