<svg xmlns="http://www.w3.org/2000/svg" viewBox="0 0 48 48" width="96" height="96"><path fill="#37474f" d="M24 24c-.1 0-.2 0-.3-.1-3.8-1.2-2.7-6.9-2.7-7.1.1-.5.6-.9 1.2-.8.5.1.9.6.8 1.2 0 0-.8 4.2 1.3 4.9.5.2.8.7.6 1.3-.1.3-.5.6-.9.6z"/><path fill="#455a64" d="M42 10l-1-1h-2v1h3zm-30 0l-1-1H9v1h3zm8 0h7v3h-7v-3zm21 9H11.1v-5H42v4c0 .6-.4 1-1 1"/><path fill="#455a64" d="M28 24.6c.2-1.4 1.1-4.1 1.7-5.6H33v-5H6v4c1.3 0 3 2 3 4s-5 8-5 15c0 0 0 2 3 2h5c2 0 2.8-.7 3.2-2.1l2.2-8.7c.2-.7.8-1.3 1.6-1.3h9c.4 0 .8-.2.9-.6.2-.4.1-.8-.2-1.1l-.7-.6zm-7 .4s-2 0-2-2v-1s0-3 3-3h3c1.5 0 1.9 1.1 2 1.7-.5 1.5-1 3.2-1 4.3h-5z"/><path fill="#90a4ae" d="M27 10v2s0 1-1 1h-5c-1 0-1-1-1-1v-2H7c-1 0-1 1-1 1v5h36v2h1c.6 0 1-.4 1-1v-7H27zm-9 15c0 .6-.4 1-1 1s-1-.4-1-1 .4-1 1-1 1 .4 1 1z"/><path fill="#78909c" d="M6 14h36v2H6v-2z"/><path fill="#263238" d="M15 25c0-1.1.9-2 2-2v-1c0-1.3.5-2.9 1.9-4H9.6c.9 1.1 1.4 2.5 1.4 4 0 1.2-.7 2.4-1.7 4.1C7.9 28.6 6 33 6 36c0 0 0 1 1 1h5c.9 0 .9-.7 1-1l2.5-8.3c.1-.4.3-.7.5-1-.6-.4-1-1-1-1.7z"/></svg>