<svg xmlns="http://www.w3.org/2000/svg" viewBox="0 0 48 48" width="96" height="96"><path fill="#4d4d4d" d="M27 8h-6a2 2 0 00-2 2v3a1 1 0 001 1h1v-4h6v4h1a1 1 0 001-1v-3a2 2 0 00-2-2"/><path fill="#b3b3b3" d="M41 12H7a2 2 0 00-2 2v24a2 2 0 002 2h34a2 2 0 002-2V14a2 2 0 00-2-2"/><path fill="#78909C" d="M9 11h3v1H9zm27 0h3v1h-3z"/><path fill="gray" d="M13 12h2v28h-2zm20 0h2v28h-2z"/><path d="M23.922 15.456a4 4 0 100 8 4 4 0 100-8z" fill="#666"/><path d="M40.922 27.941l-12.554 6.515-2.446-4.483 12.554-6.517z" fill="#999"/></svg>