<svg xmlns="http://www.w3.org/2000/svg" viewBox="0 0 48 48" width="96" height="96"><path fill="#c98d09" d="M33 4l-2 2 1 1a2 2 0 11-2 2l-1-1-2 2 5 5 6-6-5-5z"/><path fill="#ffc107" d="M22.586 23.586l17-17 2.828 2.828-17 17z"/><path fill="#ffc107" d="M18 44c-3.542 0-6.478-2.645-6.938-6.063C7.645 37.478 5 34.542 5 31c0-3.426 2.594-6.158 6.607-6.961C16.743 23.012 23.706 23 24 23h2v2c0 .294-.012 7.257-1.039 12.393C24.158 41.406 21.426 44 18 44zm3.96-16.96c-2.393.076-6.43.294-9.567.921C11.597 28.12 9 28.811 9 31c0 1.654 1.346 3 3 3h3v3c0 1.654 1.346 3 3 3 2.189 0 2.88-2.597 3.039-3.393.627-3.137.846-7.174.921-9.567z"/><path fill="#c98d09" d="M27 28a.997.997 0 01-.707-.293l-5-5a.999.999 0 111.414-1.414l5 5A.999.999 0 0127 28z"/><path fill="#c98d09" d="M27.99 27.01a.997.997 0 01-.707-.293l-5-5a.999.999 0 111.414-1.414l5 5a.999.999 0 01-.707 1.707z"/></svg>