<svg xmlns="http://www.w3.org/2000/svg" viewBox="0 0 48 48" width="344" height="344"><path fill="#FFA000" d="M41.456 34.385L23.778 16.707l-7.071 7.071L21.93 29H26v4h4v4h4v4h6.46l2.41-2.372z"/><path fill="#FFA000" d="M8.929 8.929c-3.905 3.906-3.905 10.236 0 14.143 3.906 3.905 10.236 3.905 14.143 0 3.905-3.906 3.905-10.236 0-14.143-3.907-3.906-10.237-3.906-14.143 0zm6.192 6.192a3.001 3.001 0 01-4.243-4.243 3.001 3.001 0 014.243 4.243z"/><g fill="#D67C05"><path d="M23.777 22.365l1.414-1.415L42.87 38.628l-1.414 1.414z"/><path d="M27.239 20.167l-1.586-1.585a9.947 9.947 0 01-7.071 7.071l1.591 1.59a11.953 11.953 0 004.313-2.758 11.915 11.915 0 002.753-4.318z"/></g></svg>