<svg xmlns="http://www.w3.org/2000/svg" viewBox="0 0 48 48" width="96" height="96"><path fill="#673ab7" d="M40.9 24.4c1.1-1 1.8-2.4 2-3.9.6-2.4.1-5.1-.4-7.4-.8-3.7-2.4-7.2-3.5-8.2-.5-.6-1.1-.9-1.8-.9-.4 0-.7.1-1 .2-.7.3-4.8 2.1-7.6 5.6l-.1.2c-.2.2-.4.4-.5.7l-.1.1s0 .1-.1.1c-1.5 1.9-2.5 3.5-2.8 6.4-.2 2.4-1.4 3.9-2.1 4.7-.7.7-2.5 1.7-4.3 2.1-2.6.2-5.4 1.6-7.7 3.6l-.2.2-.3.3c-3.2 2.9-5 6.7-5.2 7.2-.2.4-.6 1.4.6 2.6 1.2 1.2 7.2 4 12.6 4 9.6.3 9.4-6.2 9.5-6.8.2-1.7-.3-3.8-.7-4.9-.2-.5-.4-1.1-.5-1.6-.5-1.6-.9-2.9-.4-3.5.1-.1.3-.3.8-.3.7 0 1.6.3 2.6.6 1.2.8 3.3 1.5 5.3 1.5s4.4-1.1 5.9-2.6z"/><path fill="#bbdefb" d="M39.5 23c-4.5 4.4-9.9.5-11.1-.6C26 20 26.9 15 30.1 11.2l.1-.2c3.5-4 6.1-1.1 7.2-.1 2.2 2.2 5.6 8.6 2.1 12.1zM24.2 38.6c4.3-4.6-.1-10-1.2-11.2-2.3-2.4-7.2-1.5-10.8 1.8l-.2.1c-3.9 3.6-1.1 6.3-.1 7.4C14 39 21.1 42 24.5 38.3l-.3.3z"/><path fill="#fff" d="M20 38c-.6 0-1-.4-1-1 0-.5.4-1 1-1 .3 0 2-.2 2-3 0-.6.4-1 1-1s1 .4 1 1c0 4-2.6 5-4 5zm15-15c-.6 0-1-.4-1-1 0-.5.4-1 1-1 .3 0 2-.2 2-3 0-.6.4-1 1-1s1 .4 1 1c0 4-2.6 5-4 5z"/></svg>