<svg xmlns="http://www.w3.org/2000/svg" viewBox="0 0 48 48" width="96" height="96"><path fill="#b0bec5" d="M35 5H7a4 4 0 00-4 4v17a4 4 0 004 4h28a4 4 0 004-4V9a4 4 0 00-4-4z"/><path fill="#607d8b" d="M4.088 6.273a3.98 3.98 0 00-.961 1.774L21 21 38.873 8.047a3.971 3.971 0 00-.961-1.773L21 18.531 4.088 6.273z"/><path fill="#cfd8dc" d="M41 16H13a4 4 0 00-4 4v17a4 4 0 004 4h28a4 4 0 004-4V20a4 4 0 00-4-4z"/><path fill="#78909c" d="M10.088 17.273a3.977 3.977 0 00-.961 1.773L27 32l17.873-12.953a3.971 3.971 0 00-.961-1.773L27 29.531 10.088 17.273z"/><path fill="#2196f3" d="M48 40l-9-8v16z"/><path fill="#2196f3" d="M27 37h13v6H27z"/></svg>