<svg xmlns="http://www.w3.org/2000/svg" viewBox="0 0 128 128"><path fill="#f8b790" d="M90.9 104.5H37.1c-12.2 0-21.5-10.8-19.8-22.8l4.3-30c1.4-9.9 9.8-17.2 19.8-17.2h45.3c10 0 18.399 7.3 19.8 17.2l4.3 30c1.7 12-7.7 22.8-19.9 22.8"/><path fill="#facdb2" d="M86.7 34.5H41.4c-.826 0-1.642.05-2.442.147L35 48.3c-4.2 14.5 3 28.7 15.1 35 4.2 2.4 8.3 3 10 3.101 1.3.199 2.6.199 3.9.199l.308.002h.001c19.492-.001 34.179-18.8 28.736-38.141l-.002-.007-.007-.024a.01.01 0 00-.002-.005 1.245 1.245 0 00-.013-.044l-.011-.039-.006-.02-.006-.02-3.961-13.665A19.807 19.807 0 0086.7 34.5"/><path fill="#e0a683" d="M89.1 34.7L93 48.3l.006.02.006.02a.569.569 0 01.02.07.065.065 0 00.004.013.01.01 0 00.002.005l.007.024.002.007c5.444 19.342-9.242 38.143-28.736 38.141h-.001l-.308-.002h-.9c-.402.027-.812.039-1.227.039-1.132 0-2.302-.093-3.473-.239l-21.5-2.5a12.37 12.37 0 00-1.404-.082C23.6 83.817 21.277 102.081 33.8 104.2c1.095.199 2.19.299 3.286.3h53.815c6.1 0 11.5-2.7 15.162-6.9 3.638-4.2 5.538-9.9 4.638-15.9l-4.3-30c-1.301-9-8.501-15.9-17.301-17"/><path fill="#454b54" d="M90.9 107.5H37.1c-6.7 0-13-2.9-17.4-7.9s-6.3-11.7-5.4-18.3l3.3-20.1c.3-1.6 1.8-2.7 3.4-2.5 1.6.3 2.7 1.8 2.5 3.4l-3.3 20c-.7 4.8.8 9.8 4 13.5s7.9 5.9 12.8 5.9h53.9c4.9 0 9.6-2.1 12.8-5.9 3.2-3.7 4.7-8.7 4-13.5l-3.3-19.9c-.3-1.6.8-3.2 2.5-3.4 1.6-.3 3.2.8 3.4 2.5l3.3 20c1 6.7-1 13.3-5.4 18.4-4.3 4.9-10.6 7.8-17.3 7.8zM21.506 56.201a4.5 4.5 0 01-4.462-5.13C18.771 38.861 28.972 30 41.3 30h45.3c12.328 0 22.529 8.861 24.257 21.07a4.5 4.5 0 01-8.912 1.261C100.853 44.606 94.398 39 86.6 39H41.3c-7.799 0-14.252 5.606-15.344 13.33a4.502 4.502 0 01-4.45 3.871zM59 28.5c-.26 0-.52-.03-.78-.08s-.51-.13-.75-.23-.47-.22-.69-.36a4.92 4.92 0 01-.61-.5 4.92 4.92 0 01-.5-.61c-.14-.22-.26-.45-.36-.69-.1-.24-.18-.49-.23-.75a4.13 4.13 0 01-.08-.78c0-1.05.43-2.09 1.17-2.83.19-.18.39-.35.61-.5.22-.14.45-.26.69-.36.24-.1.49-.18.75-.23 1.3-.26 2.68.16 3.61 1.09.74.74 1.17 1.78 1.17 2.83 0 .26-.03.52-.08.78s-.13.51-.23.75-.22.47-.36.69c-.15.22-.32.42-.5.61-.19.18-.39.35-.61.5-.22.14-.45.26-.69.36-.24.1-.49.18-.75.23-.26.05-.52.08-.78.08zm10 0c-1.05 0-2.08-.43-2.83-1.17-.18-.19-.351-.39-.5-.61-.14-.22-.26-.45-.36-.69-.1-.24-.18-.49-.229-.75A3.39 3.39 0 0165 24.5c0-1.05.43-2.08 1.17-2.83a4.01 4.01 0 013.61-1.09c.26.05.51.13.75.23.239.1.47.22.689.36.22.15.42.32.61.5.74.75 1.171 1.78 1.171 2.83 0 .26-.03.52-.08.78s-.13.51-.23.75-.22.47-.37.69c-.14.22-.31.42-.489.61-.19.18-.391.35-.61.5-.22.14-.45.26-.689.36-.24.1-.49.18-.75.23-.262.05-.522.08-.782.08z"/></svg>